<svg xmlns="http://www.w3.org/2000/svg" width="1226.667" height="1129.333" version="1.0" viewBox="0 0 920 847"><path d="M532.2 79c.3 1.4 2.8 10.4 5.6 20 16.1 55.8 22.1 95 20.9 137.5-1 36.2-6.1 60.5-18.7 88.9-13.4 30-30.6 53.6-69 94.6-43 45.8-58.8 66.5-72.6 94.7-14.2 29.1-20.7 59.9-20.6 97.8.1 25.4 2.3 44.4 9.6 80.2 3.7 17.9 20.2 74 22.6 76.6.4.5 1.1-1.1 1.5-3.4 1.1-6.3 7-24.5 12.2-37.9 14.9-37.8 39.7-76 76.7-118 5.5-6.3 33.3-34.9 61.7-63.5 61.6-62.1 64.2-65 82.1-87.5 52.3-66.1 64.5-130.3 39-205.5l-4.7-14-.7 14.5c-2.1 40.6-12 71-33.8 103.8-19.1 28.6-40.9 51.4-96.5 100.7-60.8 53.9-89.8 87.1-110.7 126.5-7.2 13.7-16.7 38.1-20.1 51.5-1.2 5-.5-7.9.9-16C428 560.1 457.2 512.1 531.1 434c65-68.8 82.7-90.6 97.9-120.7 21.4-42.5 21.5-82.1.5-124.4-6.4-12.9-17.1-29.5-27.4-42.4-13.9-17.5-41.4-45.2-63-63.6-6.4-5.5-7.3-6-6.9-3.9z"/><path d="M300.3 385.4c-2.6 1.8-5.5 4.8-6.5 6.8l-1.9 3.6h-12.2c-18.7-.1-32 4-41.9 13-4.2 3.8-11.8 14.5-11.8 16.7 0 .8 3.4 1.6 9.8 2.3 16.7 2 30.4 6.6 42.7 14.7 9 5.8 25.1 22.6 32.7 34 16.5 24.9 29.9 59.4 38.8 100 4.9 22.3 4.8 22 4.9 15 .2-9.9 2-28.2 4.2-41.5 10.5-63.8 41.3-116.5 92.5-158.6 5.7-4.7 10.4-8.8 10.4-9 0-.3-35.3-.4-78.5-.3l-78.5.1-4.7 3.2z"/></svg>